<svg width="180" height="30" viewBox="0 0 180 30" fill="none" xmlns="http://www.w3.org/2000/svg">
<g clip-path="url(#clip0_1935_8352)">
<path d="M31.9957 29.7989C31.7551 29.7767 31.545 29.7419 31.3344 29.7401C30.5792 29.733 29.823 29.7143 29.0669 29.7432C28.2135 29.7762 27.3621 29.856 26.5097 29.9144C26.2584 29.9313 26.0071 29.954 25.7554 29.9589C24.6253 29.9772 23.4952 30.0102 22.3652 29.9982C21.6104 29.9901 20.8556 29.9255 20.1027 29.868C19.2994 29.8061 18.4988 29.7178 17.6964 29.651C17.3539 29.6225 17.0073 29.5922 16.6653 29.6095C15.7976 29.6541 14.9314 29.7227 14.0641 29.7811C13.805 29.7985 13.5463 29.8186 13.2867 29.8257C12.5652 29.8444 11.8429 29.8858 11.1224 29.8636C10.3005 29.8382 9.48001 29.7575 8.65953 29.6933C7.97742 29.6399 7.29763 29.5521 6.61459 29.5209C5.77098 29.4816 4.92412 29.4594 4.08051 29.479C3.46596 29.4937 2.85372 29.5873 2.24056 29.6465C1.7778 29.6911 1.31782 29.745 0.855519 29.7802C0.352959 29.819 0.346481 29.8137 0.23079 29.3346C0.179659 29.1138 0.147616 28.8893 0.134995 28.6634C0.0817775 27.8118 0.00357473 26.9592 0.000335395 26.1067C-0.00753156 24.1796 0.0109767 22.2526 0.0442955 20.3256C0.0632688 19.2279 0.173409 18.1303 0.162765 17.033C0.161803 16.3658 0.2484 15.7011 0.420516 15.0548C0.599142 14.3537 0.692623 13.6362 0.632464 12.9156C0.583412 12.3362 0.459389 11.7604 0.375629 11.1824C0.344114 10.9718 0.325265 10.7596 0.319174 10.5469C0.310381 10.161 0.329361 9.77458 0.314553 9.3882C0.275218 8.37967 0.224777 7.37114 0.175724 6.36262C0.146107 5.73869 0.0998238 5.11477 0.0873293 4.48684C0.0720581 3.71496 0.0873351 2.94307 0.081782 2.16941C0.081782 2.04596 0.0355044 1.92073 0.0456852 1.79996C0.0636811 1.62051 0.10169 1.44346 0.15906 1.27185C0.245133 1.01693 0.359431 0.77093 0.45476 0.518686C0.501036 0.393902 0.567674 0.329284 0.720848 0.337305C1.49551 0.378306 2.24797 0.216531 3.00597 0.102888C3.31093 0.0583223 3.6381 0.130522 3.95278 0.167066C4.37343 0.215643 4.79038 0.300759 5.21196 0.335075C5.94219 0.395239 6.67474 0.457188 7.4073 0.465656C8.0945 0.473677 8.78309 0.42109 9.47029 0.382317C10.102 0.346665 10.7318 0.284717 11.3635 0.253521C12.1895 0.212966 13.0169 0.188901 13.8434 0.164389C14.4496 0.145226 15.0554 0.123834 15.6616 0.119824C19.4123 0.101997 23.1634 0.0752602 26.9146 0.0890756C27.4741 0.0913039 28.0173 0.0128679 28.5671 -5.62193e-05C29.0724 -0.013426 29.5815 0.0757059 30.0873 0.133642C30.4857 0.178207 30.8804 0.253076 31.2789 0.293186C31.4279 0.308338 31.4358 0.388556 31.433 0.482145C31.4247 0.731714 31.3816 0.982175 31.3964 1.22952C31.4274 1.75673 31.4987 2.28216 31.5288 2.80938C31.5351 3.04831 31.516 3.28724 31.4719 3.52243C31.3701 4.15563 31.357 4.79911 31.433 5.43565C31.4594 5.65402 31.4649 5.87507 31.4839 6.09478C31.544 6.78243 31.6301 7.46874 31.6621 8.15773C31.7134 9.27857 31.7416 10.4007 31.7546 11.5229C31.7634 12.203 31.6931 12.8853 31.7231 13.5636C31.7532 14.2419 31.868 14.9175 31.9411 15.5944C31.9647 15.8133 31.9874 16.0339 31.9874 16.2536C31.9915 17.6418 32.0013 19.03 31.9832 20.4178C31.9763 20.9459 31.899 21.4731 31.8578 22.0012C31.8356 22.2874 31.818 22.5739 31.805 22.8609C31.7865 23.3003 31.7514 23.7407 31.7662 24.1792C31.7824 24.6623 31.8472 25.1436 31.8911 25.6258C31.9235 25.9846 31.9804 26.3429 31.9837 26.7016C32.004 27.7177 31.9957 28.7325 31.9957 29.7989ZM13.5556 15.2099C13.5047 15.2451 13.4559 15.2831 13.4093 15.3235C10.7253 17.9053 8.04283 20.487 5.36189 23.0686C5.29866 23.1257 5.24838 23.1947 5.21422 23.2714C5.18005 23.3481 5.16273 23.4308 5.16336 23.5143C5.15318 23.8583 5.10368 24.2006 5.08008 24.5442C5.05648 24.8878 5.04536 25.2318 5.02639 25.6138C5.37207 25.5928 5.68999 25.5745 6.00744 25.5545C6.4702 25.5251 6.93621 25.4979 7.3999 25.4609C7.45867 25.456 7.52161 25.4061 7.56789 25.3624C8.79081 24.2037 10.0123 23.0422 11.2325 21.8778C12.5171 20.6484 13.7974 19.4154 15.0734 18.1788C15.3395 17.9221 15.6019 17.6614 15.8833 17.3851C15.9573 17.4662 16.0151 17.5362 16.0804 17.5995C18.7502 20.1718 21.421 22.7436 24.0926 25.3147C24.1547 25.3744 24.2315 25.4533 24.3088 25.4596C24.9927 25.5144 25.6776 25.5616 26.363 25.5973C26.6795 25.6133 26.6952 25.5973 26.6776 25.2973C26.642 24.6966 26.5805 24.0972 26.5471 23.4964C26.5379 23.3315 26.5009 23.2112 26.3741 23.09C24.1463 20.9526 21.9215 18.8121 19.6997 16.6685C19.1931 16.1806 18.6853 15.6932 18.1762 15.2063L21.8006 11.6553C22.3781 12.2132 22.9399 12.7636 23.5128 13.3042C23.6049 13.3846 23.7236 13.431 23.8478 13.4352C24.3847 13.4352 24.921 13.4125 25.4578 13.3969C25.5073 13.3969 25.5564 13.3875 25.6466 13.3791L22.2643 10.1485C22.2766 10.1165 22.2921 10.0858 22.3106 10.0567C23.3616 9.04326 24.4141 8.03102 25.468 7.01996C25.5306 6.9709 25.6084 6.94331 25.6892 6.94153C26.3042 6.90811 26.7646 6.68171 27.009 6.09478C27.3167 5.35365 26.7855 4.3567 25.7341 4.37408C25.0066 4.38745 24.4277 4.86075 24.4499 5.67808C24.4521 5.77023 24.4191 5.85995 24.3573 5.93033C23.293 6.96426 22.2249 7.99151 21.1305 9.04593L17.7551 5.78103C17.7375 6.02258 17.719 6.2463 17.7089 6.46958C17.6908 6.79312 17.6815 7.11712 17.6603 7.44067C17.6517 7.50929 17.6603 7.5789 17.6854 7.64365C17.7106 7.7084 17.7514 7.7664 17.8046 7.81279C18.3789 8.35026 18.943 8.89797 19.4706 9.40469L15.8365 12.9045C14.65 11.7613 13.4417 10.5982 12.227 9.42831C12.7855 8.89352 13.3575 8.35249 13.917 7.80031C14.0013 7.71188 14.0505 7.5976 14.0558 7.47766C14.0558 6.96069 14.0317 6.44418 14.0155 5.92721C14.0155 5.87953 14.0068 5.83184 13.9998 5.76098L10.6217 9.01697C10.555 8.96081 10.5259 8.93809 10.4995 8.91313L7.67663 6.23917C7.4707 6.04442 7.22497 5.87284 7.30642 5.53414C7.3203 5.47709 7.28004 5.40802 7.26385 5.34473C7.12178 4.78365 6.49937 4.29743 5.94868 4.36072C5.13144 4.45475 4.5229 4.96057 4.67654 5.90181C4.75891 6.40763 5.08609 6.79981 5.70943 6.88226C6.09259 6.93351 6.35452 7.09573 6.6132 7.35109C7.48967 8.2179 8.38512 9.06643 9.27316 9.92254C9.33146 9.97825 9.38608 10.038 9.49945 10.1547L6.08566 13.4415C6.70067 13.4415 7.28143 13.437 7.86127 13.4441C7.92879 13.4481 7.99637 13.4373 8.059 13.4127C8.12164 13.3881 8.17774 13.3503 8.22315 13.302C8.78309 12.7516 9.35136 12.2088 9.89789 11.6816L13.5556 15.2099Z" fill="#940E0E"/>
<path d="M20.5354 10.4378L20.7866 10.7052L20.6779 10.596C19.6256 11.6687 18.577 12.7441 17.5195 13.8119C17.2447 14.0891 16.9374 14.3369 16.6537 14.6065C15.0924 16.092 13.5325 17.5787 11.9743 19.0667C10.9124 20.0768 9.84895 21.0862 8.78398 22.0949C7.85167 22.9785 6.9189 23.8618 5.98566 24.7448C5.94807 24.7857 5.89684 24.8126 5.84082 24.821C5.8746 24.7827 5.90699 24.7426 5.94309 24.7065C6.0014 24.6472 6.06249 24.5906 6.12218 24.5322C7.72643 22.9727 9.33067 21.4129 10.9349 19.8528C11.92 18.8937 12.9027 17.9326 13.8832 16.9694C14.7522 16.1191 15.6205 15.2682 16.4881 14.4167C17.2155 13.7036 17.942 12.9891 18.6677 12.273C19.2313 11.7168 19.7945 11.1599 20.3572 10.6023C20.4081 10.5488 20.4655 10.5011 20.5354 10.4378Z" fill="#940E0E"/>
<path d="M16.9126 16.3659L17.0889 16.2042L25.4677 24.4043L25.4404 24.4364C25.3973 24.4052 25.3538 24.3749 25.3122 24.3419C25.2886 24.3232 25.2687 24.3 25.2469 24.2791C23.3669 22.484 21.4867 20.6888 19.6063 18.8937C18.7192 18.0505 17.8215 17.2185 16.9126 16.3659Z" fill="#940E0E"/>
<path d="M11.2021 10.4369L14.8223 13.9857L14.5909 14.1359C14.4058 13.9777 14.1989 13.8154 14.0106 13.6354C13.1776 12.8412 12.3534 12.0408 11.5232 11.2449C11.4141 11.1426 11.2991 11.0462 11.1789 10.9561C10.8906 10.7346 10.8888 10.6972 11.2021 10.4369Z" fill="#940E0E"/>
</g>
<path d="M46.112 5.28H50.48L50.432 7.488C51.12 6.768 51.888 6.224 52.736 5.856C53.584 5.472 54.456 5.28 55.352 5.28C56.312 5.28 57.192 5.504 57.992 5.952C58.808 6.384 59.512 6.992 60.104 7.776C60.696 8.544 61.152 9.432 61.472 10.44C61.792 11.448 61.952 12.52 61.952 13.656C61.952 14.824 61.776 15.968 61.424 17.088C60.688 19.44 59.144 21.232 56.792 22.464C54.44 23.696 51.176 24.312 47 24.312L46.112 5.28ZM50.096 22.968C52.432 22.2 54.192 21.296 55.376 20.256C56.56 19.216 57.296 18.208 57.584 17.232C57.84 16.352 57.968 15.4 57.968 14.376C57.968 13.304 57.832 12.28 57.56 11.304C57.288 10.328 56.904 9.52 56.408 8.88C55.928 8.24 55.376 7.88 54.752 7.8C54.416 7.752 54.088 7.728 53.768 7.728C53.208 7.728 52.648 7.8 52.088 7.944C51.528 8.072 50.968 8.288 50.408 8.592L50.096 22.968ZM103.804 19.056C103.708 20.432 103.324 21.52 102.652 22.32C101.98 23.104 101.132 23.664 100.108 24C99.1003 24.32 98.0123 24.48 96.8443 24.48C96.0123 24.48 95.1083 24.264 94.1323 23.832C93.1723 23.4 92.2363 22.752 91.3242 21.888C90.4123 21.024 89.6123 19.936 88.9243 18.624L89.0923 18.456C89.7323 18.952 90.4123 19.4 91.1323 19.8C91.8683 20.2 92.5963 20.544 93.3163 20.832C94.0363 21.104 94.7003 21.312 95.3083 21.456C95.9323 21.6 96.4363 21.672 96.8203 21.672C97.5723 21.672 98.2043 21.496 98.7163 21.144C99.2443 20.792 99.5483 20.208 99.6283 19.392V19.32C99.6283 18.968 99.3963 18.6 98.9323 18.216C98.4683 17.816 97.8603 17.392 97.1083 16.944C96.3723 16.496 95.5883 16.024 94.7563 15.528C93.9403 15.032 93.1643 14.52 92.4283 13.992C91.6923 13.448 91.0843 12.888 90.6043 12.312C90.1403 11.736 89.9083 11.136 89.9083 10.512C89.9083 10.432 89.9083 10.368 89.9083 10.32C89.9083 10.256 89.9163 10.192 89.9323 10.128C90.1243 9.056 90.5483 8.12 91.2043 7.32C91.8763 6.52 92.6763 5.896 93.6043 5.448C94.5483 5 95.5243 4.776 96.5323 4.776C97.5563 4.776 98.6523 4.936 99.8203 5.256C101.004 5.56 102.212 6 103.444 6.576L102.1 10.488C100.852 9.272 99.7803 8.376 98.8843 7.8C97.9883 7.224 97.1403 6.936 96.3403 6.936C95.4763 6.936 94.8123 7.152 94.3483 7.584C93.9003 8 93.6443 8.704 93.5803 9.696V9.768C93.5803 10.136 93.7643 10.504 94.1323 10.872C94.5003 11.24 94.9883 11.616 95.5963 12C96.2043 12.368 96.8683 12.752 97.5883 13.152C98.3243 13.536 99.0523 13.944 99.7723 14.376C100.508 14.792 101.18 15.24 101.788 15.72C102.396 16.184 102.884 16.68 103.252 17.208C103.62 17.72 103.804 18.272 103.804 18.864V19.056ZM122.232 24.264L112.416 14.856L111.408 15.792L111.12 24H108.096L107.448 5.28H111.768L111.48 13.632L117.6 5.04L121.944 6.192L115.488 12.048L122.568 24.288L122.232 24.264ZM125.747 24L125.075 5.28H129.587L128.915 24H125.747ZM147.901 24.312L137.917 9.984L135.781 24.312H135.397L133.861 5.28H137.797L146.005 15.216L148.549 5.04H149.005L148.093 24.312H147.901ZM166.804 19.056C166.708 20.432 166.324 21.52 165.652 22.32C164.98 23.104 164.132 23.664 163.108 24C162.1 24.32 161.012 24.48 159.844 24.48C159.012 24.48 158.108 24.264 157.132 23.832C156.172 23.4 155.236 22.752 154.324 21.888C153.412 21.024 152.612 19.936 151.924 18.624L152.092 18.456C152.732 18.952 153.412 19.4 154.132 19.8C154.868 20.2 155.596 20.544 156.316 20.832C157.036 21.104 157.7 21.312 158.308 21.456C158.932 21.6 159.436 21.672 159.82 21.672C160.572 21.672 161.204 21.496 161.716 21.144C162.244 20.792 162.548 20.208 162.628 19.392V19.32C162.628 18.968 162.396 18.6 161.932 18.216C161.468 17.816 160.86 17.392 160.108 16.944C159.372 16.496 158.588 16.024 157.756 15.528C156.94 15.032 156.164 14.52 155.428 13.992C154.692 13.448 154.084 12.888 153.604 12.312C153.14 11.736 152.908 11.136 152.908 10.512C152.908 10.432 152.908 10.368 152.908 10.32C152.908 10.256 152.916 10.192 152.932 10.128C153.124 9.056 153.548 8.12 154.204 7.32C154.876 6.52 155.676 5.896 156.604 5.448C157.548 5 158.524 4.776 159.532 4.776C160.556 4.776 161.652 4.936 162.82 5.256C164.004 5.56 165.212 6 166.444 6.576L165.1 10.488C163.852 9.272 162.78 8.376 161.884 7.8C160.988 7.224 160.14 6.936 159.34 6.936C158.476 6.936 157.812 7.152 157.348 7.584C156.9 8 156.644 8.704 156.58 9.696V9.768C156.58 10.136 156.764 10.504 157.132 10.872C157.5 11.24 157.988 11.616 158.596 12C159.204 12.368 159.868 12.752 160.588 13.152C161.324 13.536 162.052 13.944 162.772 14.376C163.508 14.792 164.18 15.24 164.788 15.72C165.396 16.184 165.884 16.68 166.252 17.208C166.62 17.72 166.804 18.272 166.804 18.864V19.056Z" fill="#F8FAFC"/>
<path d="M64.5845 24C64.5845 24 64.7605 23.8 65.1125 23.4C65.4805 23 65.9525 22.464 66.5285 21.792C67.1205 21.104 67.7685 20.344 68.4725 19.512C69.1925 18.664 69.9045 17.792 70.6085 16.896C71.3125 15.984 71.9525 15.112 72.5285 14.28C73.1205 13.432 73.5925 12.672 73.9445 12C74.3125 11.312 74.4965 10.768 74.4965 10.368C74.4965 9.504 74.2885 8.848 73.8725 8.4C73.4725 7.936 72.8965 7.704 72.1445 7.704C71.2965 7.704 70.2485 7.896 69.0005 8.28C67.7685 8.648 66.5365 9.28 65.3045 10.176L65.1125 10.008C66.4245 8.136 67.6725 6.8 68.8565 6C70.0565 5.184 71.2645 4.776 72.4805 4.776C73.2645 4.776 74.0165 4.904 74.7365 5.16C75.4565 5.416 76.0965 5.776 76.6565 6.24C77.2325 6.704 77.6805 7.248 78.0005 7.872C78.3365 8.496 78.5045 9.168 78.5045 9.888C78.5045 10.464 78.3125 11.128 77.9285 11.88C77.5605 12.616 77.0565 13.4 76.4165 14.232C75.7925 15.064 75.0965 15.896 74.3285 16.728C73.5605 17.544 72.7765 18.328 71.9765 19.08C71.1925 19.832 70.4485 20.504 69.7445 21.096C69.0565 21.672 68.4725 22.128 67.9925 22.464L78.5765 20.016V24H64.5845Z" fill="#F9F7F7"/>
<defs>
<clipPath id="clip0_1935_8352">
<rect width="32" height="30" fill="white"/>
</clipPath>
</defs>
</svg>
